<?xml version="1.0" encoding="UTF-8"?>
<!-- 线性风格脑部图标，主色 #4F46E5，简洁、适配高分屏 -->
<svg width="24" height="24" viewBox="0 0 24 24" fill="none" xmlns="http://www.w3.org/2000/svg" aria-hidden="true" focusable="false">
  <!-- 外轮廓 -->
  <path d="M9.5 3.5C8.1 3.5 7 4.6 7 6v1.2c-1.9.4-3.5 2.1-3.5 4.1 0 1 .4 1.9 1 2.6-.3.5-.5 1.1-.5 1.7 0 1.8 1.5 3.3 3.3 3.3h3.2c.9 0 1.7-.3 2.3-.9.6.6 1.4.9 2.3.9h2.2c1.8 0 3.3-1.5 3.3-3.3 0-.6-.2-1.2-.5-1.7.6-.7 1-1.6 1-2.6 0-2-1.6-3.7-3.5-4.1V6c0-1.4-1.1-2.5-2.5-2.5-.7 0-1.3.3-1.8.7-.5-.4-1.1-.7-1.8-.7-.7 0-1.3.3-1.8.7-.5-.4-1.1-.7-1.8-.7Z" stroke="#4F46E5" stroke-width="1.6" stroke-linecap="round" stroke-linejoin="round"/>
  <!-- 半边脑回折线 -->
  <path d="M9 8c-1 .4-1.8 1.4-1.8 2.6 0 .7.3 1.3.7 1.8M9.2 13.5c.3.5.8.8 1.3 1M8.2 15.8c.5.5 1.2.8 2 .8" stroke="#4F46E5" stroke-width="1.4" stroke-linecap="round"/>
  <!-- 另一侧折线 -->
  <path d="M15 8c1 .4 1.8 1.4 1.8 2.6 0 .7-.3 1.3-.7 1.8M14.8 13.5c-.3.5-.8.8-1.3 1M15.8 15.8c-.5.5-1.2.8-2 .8" stroke="#4F46E5" stroke-width="1.4" stroke-linecap="round"/>
</svg>

